<svg width="18" height="18" viewBox="0 0 18 18" fill="none" xmlns="http://www.w3.org/2000/svg">
<path d="M17.1 6.79958H4.5V4.20128C4.5 3.30398 5.1102 2.47058 5.9949 2.32478C6.25331 2.28081 6.51821 2.29372 6.77112 2.36262C7.02403 2.43152 7.25888 2.55474 7.45928 2.72371C7.65969 2.89267 7.82084 3.1033 7.9315 3.34093C8.04215 3.57856 8.09966 3.83746 8.1 4.09958H9.9C9.89956 3.59675 9.79388 3.09958 9.58974 2.64006C9.38559 2.18053 9.08752 1.76882 8.71469 1.43143C8.34186 1.09403 7.90253 0.838418 7.42496 0.68103C6.9474 0.523642 6.44218 0.467966 5.9418 0.517583C4.0707 0.699383 2.7 2.37968 2.7 4.25978V6.79958H0.9C0.661305 6.79958 0.432387 6.8944 0.263604 7.06319C0.0948211 7.23197 0 7.46089 0 7.69958V9.49958C0 11.845 1.5066 13.8403 3.6 14.5846V17.5996H5.4V14.8996H12.6V17.5996H14.4V14.5846C16.4934 13.8403 18 11.845 18 9.49958V7.69958C18 7.46089 17.9052 7.23197 17.7364 7.06319C17.5676 6.8944 17.3387 6.79958 17.1 6.79958Z" fill="#A1A7B0"/>
</svg>
