<svg width="20" height="14" viewBox="0 0 20 14" fill="none" xmlns="http://www.w3.org/2000/svg">
<path d="M0.833252 13.4167V7.91671C0.833252 7.50421 0.91728 7.1299 1.08534 6.79379C1.25339 6.45768 1.47492 6.15976 1.74992 5.90004V3.33337C1.74992 2.56949 2.01728 1.92018 2.552 1.38546C3.08672 0.850735 3.73603 0.583374 4.49992 0.583374H8.16659C8.51797 0.583374 8.84645 0.648457 9.152 0.778624C9.45756 0.908179 9.7402 1.08754 9.99992 1.31671C10.2596 1.08754 10.5423 0.908179 10.8478 0.778624C11.1534 0.648457 11.4819 0.583374 11.8333 0.583374H15.4999C16.2638 0.583374 16.9131 0.850735 17.4478 1.38546C17.9826 1.92018 18.2499 2.56949 18.2499 3.33337V5.90004C18.5249 6.15976 18.7464 6.45768 18.9145 6.79379C19.0826 7.1299 19.1666 7.50421 19.1666 7.91671V13.4167H17.3333V11.5834H2.66659V13.4167H0.833252ZM10.9166 5.16671H16.4166V3.33337C16.4166 3.07365 16.3286 2.85579 16.1526 2.67979C15.9772 2.5044 15.7596 2.41671 15.4999 2.41671H11.8333C11.5735 2.41671 11.356 2.5044 11.1806 2.67979C11.0046 2.85579 10.9166 3.07365 10.9166 3.33337V5.16671ZM3.58325 5.16671H9.08325V3.33337C9.08325 3.07365 8.99556 2.85579 8.82017 2.67979C8.64417 2.5044 8.42631 2.41671 8.16659 2.41671H4.49992C4.2402 2.41671 4.02234 2.5044 3.84634 2.67979C3.67095 2.85579 3.58325 3.07365 3.58325 3.33337V5.16671Z" fill="#A1A7B0"/>
</svg>
